<?xml version="1.0" ?><svg xmlns="http://www.w3.org/2000/svg" viewBox="0 0 512 512"><g style="fill:none;stroke-width:1;stroke:none"><path d="M458.7 0L53.3 0C23.9 0 0 23.9 0 53.3L0 458.6C0 488.1 23.9 512 53.3 512L458.6 512C488.1 512 511.9 488.1 511.9 458.7L511.9 53.3C512 23.9 488.1 0 458.7 0Z" fill="#0077F6"/><path d="M393.6 141.5L370.4 118.3C358.5 106.4 339 106.4 327 118.3L251.6 193.7C239.6 205.7 239.6 225.2 251.6 237.2L258.9 244.5 244.4 259 237.9 252.5C232.6 247.2 225.6 243.5 218.1 242.8 208.9 242 200.2 245.3 193.8 251.7L118.4 327.1C106.4 339 106.4 358.5 118.4 370.5L141.5 393.7 259.8 512 458.7 512C488.2 512 512 488.1 512 458.7L512 259.9 393.6 141.5Z" style="fill-opacity:0.6;fill:#000"/><g fill="#FFF"><path d="M393.7 141.5L370.5 118.3C358.5 106.3 339 106.3 327.1 118.3L251.7 193.7C239.7 205.7 239.7 225.2 251.7 237.1L260.3 228.5C253.1 221.3 253.1 209.6 260.3 202.3L335.7 126.9C342.9 119.7 354.6 119.7 361.8 126.9L385 150.1C388.5 153.6 390.4 158.2 390.4 163.2 390.4 168.1 388.5 172.8 385 176.3L309.6 251.7C302.6 258.7 290.4 258.7 283.5 251.7L274.9 260.3C280.7 266.1 288.4 269.3 296.6 269.3 304.8 269.3 312.5 266.1 318.3 260.3L393.7 184.9C399.5 179.1 402.7 171.4 402.7 163.2 402.7 155 399.5 147.3 393.7 141.5Z"/><path d="M251.7 283.5C255.2 287 257.1 291.6 257.1 296.6 257.1 301.5 255.2 306.2 251.7 309.7L176.3 385C169.1 392.2 157.4 392.2 150.2 385L127 361.8C119.8 354.6 119.8 342.9 127 335.6L202.4 260.2C209.4 253.2 221.6 253.2 228.5 260.2L237.1 251.6C231.3 245.8 223.6 242.6 215.4 242.6 207.2 242.6 199.5 245.8 193.7 251.6L118.3 327C106.3 339 106.3 358.5 118.3 370.4L141.5 393.6C147.5 399.6 155.4 402.6 163.2 402.6 171.1 402.6 178.9 399.6 184.9 393.6L260.3 318.2C266.1 312.4 269.3 304.7 269.3 296.5 269.3 288.3 266.1 280.6 260.3 274.8L251.7 283.5Z"/><rect transform="translate(109 109)translate(146.9959 146.9937)rotate(-45)" x="-57.4" y="-6.1" width="114.8" height="12.2"/></g></g></svg>